<svg width="32" height="32" viewBox="0 0 32 32" fill="none" xmlns="http://www.w3.org/2000/svg">
  <defs>
    <linearGradient id="bgGrad" x1="0%" y1="0%" x2="100%" y2="100%">
      <stop offset="0%" style="stop-color:#3B82F6;stop-opacity:1" />
      <stop offset="100%" style="stop-color:#1E40AF;stop-opacity:1" />
    </linearGradient>
  </defs>
  
  <!-- Background circle -->
  <circle cx="16" cy="16" r="15" fill="url(#bgGrad)" stroke="#1E40AF" stroke-width="1"/>
  
  <!-- Simplified briefcase -->
  <rect x="9" y="14" width="14" height="9" rx="1" fill="#FFFFFF" stroke="#1E40AF" stroke-width="0.8"/>
  
  <!-- Handle -->
  <path d="M13 14V12C13 11.4477 13.4477 11 14 11H18C18.5523 11 19 11.4477 19 12V14" stroke="#1E40AF" stroke-width="0.8" fill="none"/>
  
  <!-- Lock -->
  <rect x="15" y="16" width="2" height="1" rx="0.5" fill="#1E40AF"/>
  
  <!-- Connection dots -->
  <circle cx="7" cy="9" r="1.5" fill="#10B981"/>
  <circle cx="25" cy="9" r="1.5" fill="#10B981"/>
  <circle cx="7" cy="25" r="1.5" fill="#10B981"/>
  <circle cx="25" cy="25" r="1.5" fill="#10B981"/>
  
  <!-- Connection lines -->
  <line x1="8.5" y1="9" x2="13" y2="12" stroke="#10B981" stroke-width="1" opacity="0.7"/>
  <line x1="23.5" y1="9" x2="19" y2="12" stroke="#10B981" stroke-width="1" opacity="0.7"/>
  <line x1="8.5" y1="25" x2="13" y2="22" stroke="#10B981" stroke-width="1" opacity="0.7"/>
  <line x1="23.5" y1="25" x2="19" y2="22" stroke="#10B981" stroke-width="1" opacity="0.7"/>
</svg>