<svg width="64" height="64" viewBox="0 0 64 64" fill="none" xmlns="http://www.w3.org/2000/svg">
  <!-- Background circle with gradient -->
  <defs>
    <linearGradient id="bgGradient" x1="0%" y1="0%" x2="100%" y2="100%">
      <stop offset="0%" style="stop-color:#3B82F6;stop-opacity:1" />
      <stop offset="100%" style="stop-color:#1E40AF;stop-opacity:1" />
    </linearGradient>
    <linearGradient id="briefcaseGradient" x1="0%" y1="0%" x2="100%" y2="100%">
      <stop offset="0%" style="stop-color:#FFFFFF;stop-opacity:1" />
      <stop offset="100%" style="stop-color:#F1F5F9;stop-opacity:1" />
    </linearGradient>
  </defs>
  
  <!-- Main background circle -->
  <circle cx="32" cy="32" r="30" fill="url(#bgGradient)" stroke="#1E40AF" stroke-width="2"/>
  
  <!-- Briefcase body -->
  <rect x="18" y="28" width="28" height="18" rx="2" fill="url(#briefcaseGradient)" stroke="#1E40AF" stroke-width="1.5"/>
  
  <!-- Briefcase handle -->
  <path d="M26 28V24C26 22.8954 26.8954 22 28 22H36C37.1046 22 38 22.8954 38 24V28" stroke="#1E40AF" stroke-width="1.5" fill="none"/>
  
  <!-- Briefcase lock/clasp -->
  <rect x="30" y="32" width="4" height="2" rx="1" fill="#1E40AF"/>
  
  <!-- Connection nodes representing networking -->
  <circle cx="14" cy="18" r="3" fill="#10B981" stroke="#FFFFFF" stroke-width="1.5"/>
  <circle cx="50" cy="18" r="3" fill="#10B981" stroke="#FFFFFF" stroke-width="1.5"/>
  <circle cx="14" cy="50" r="3" fill="#10B981" stroke="#FFFFFF" stroke-width="1.5"/>
  <circle cx="50" cy="50" r="3" fill="#10B981" stroke="#FFFFFF" stroke-width="1.5"/>
  
  <!-- Connection lines -->
  <line x1="17" y1="18" x2="26" y2="24" stroke="#10B981" stroke-width="2" opacity="0.7"/>
  <line x1="47" y1="18" x2="38" y2="24" stroke="#10B981" stroke-width="2" opacity="0.7"/>
  <line x1="17" y1="50" x2="26" y2="44" stroke="#10B981" stroke-width="2" opacity="0.7"/>
  <line x1="47" y1="50" x2="38" y2="44" stroke="#10B981" stroke-width="2" opacity="0.7"/>
  
  <!-- Small accent dots for modern touch -->
  <circle cx="32" cy="12" r="1.5" fill="#FBBF24"/>
  <circle cx="32" cy="52" r="1.5" fill="#FBBF24"/>
</svg>